<?xml version="1.0" encoding="UTF-8"?>
<!-- Generator: Adobe Illustrator 16.0.0, SVG Export Plug-In . SVG Version: 6.00 Build 0)  -->
<!DOCTYPE svg PUBLIC "-//W3C//DTD SVG 1.1//EN" "http://www.w3.org/Graphics/SVG/1.1/DTD/svg11.dtd">
<svg version="1.1" id="Layer_1" xmlns="http://www.w3.org/2000/svg" xmlns:xlink="http://www.w3.org/1999/xlink" x="0px" y="0px" width="200px" height="200px" viewBox="0 0 200 200" enable-background="new 0 0 200 200" xml:space="preserve">
<g>
	<g>
		<path fill="#404B5B" d="M70.777,172.834c-5.708,0-10.384-4.662-10.384-10.373V37.729c0-5.708,4.676-10.384,10.384-10.384h54.955    c5.712,0,10.375,4.676,10.375,10.384v124.732c0,5.711-4.663,10.373-10.375,10.373H70.777z"/>
		<path fill="#343D4A" d="M107.238,162.108c0,1.369-1.104,2.476-2.476,2.476H91.746c-1.362,0-2.484-1.106-2.484-2.476v-1.039    c0-1.368,1.123-2.493,2.484-2.493h13.017c1.371,0,2.476,1.125,2.476,2.493V162.108z"/>
		<path fill="#343D4A" d="M109.113,38.817c0,0.566-0.445,1.009-1.003,1.009H88.405c-0.564,0-1.015-0.443-1.015-1.009v-0.423    c0-0.55,0.451-1.009,1.015-1.009h19.705c0.558,0,1.003,0.459,1.003,1.009V38.817z"/>
		<rect x="66.273" y="49.868" fill="#FFFFFF" width="63.95" height="100.467"/>
	</g>
	<g>
		<rect x="91.831" y="130.205" fill="#A5DDEE" width="12.837" height="12.835"/>
		<rect x="110.096" y="130.205" fill="#A5DDEE" width="12.826" height="12.835"/>
		<rect x="73.571" y="93.685" fill="#A5DDEE" width="12.835" height="12.833"/>
		<rect x="91.831" y="93.685" fill="#A5DDEE" width="12.837" height="12.833"/>
		<rect x="73.571" y="75.424" fill="#A5DDEE" width="12.835" height="12.835"/>
		<rect x="91.831" y="75.424" fill="#A5DDEE" width="12.837" height="12.835"/>
		<rect x="110.096" y="75.424" fill="#A5DDEE" width="12.826" height="12.835"/>
		<rect x="73.571" y="57.165" fill="#A5DDEE" width="12.835" height="12.835"/>
		<rect x="91.831" y="57.165" fill="#A5DDEE" width="12.837" height="12.835"/>
	</g>
	<g>
		<g>
			<rect x="83.839" y="130.205" fill="#343D4A" width="2.566" height="2.569"/>
			<rect x="83.839" y="135.341" fill="#343D4A" width="2.566" height="2.566"/>
			<rect x="73.571" y="135.341" fill="#343D4A" width="2.564" height="2.566"/>
			<rect x="78.706" y="130.205" fill="#343D4A" width="2.567" height="2.569"/>
			<rect x="78.706" y="140.477" fill="#343D4A" width="2.567" height="2.563"/>
			<rect x="73.571" y="130.205" fill="#343D4A" width="2.564" height="2.569"/>
			<rect x="83.839" y="140.477" fill="#343D4A" width="2.566" height="2.563"/>
			<rect x="73.571" y="140.477" fill="#343D4A" width="2.564" height="2.563"/>
		</g>
		<rect x="55.664" y="135.341" fill="#343D4A" width="15.345" height="2.566"/>
		<rect x="40.263" y="130.205" fill="#404B5B" width="12.835" height="12.835"/>
	</g>
	<g>
		<g>
			<rect x="153.67" y="57.165" fill="#343D4A" width="2.566" height="2.566"/>
			<rect x="153.67" y="62.298" fill="#343D4A" width="2.566" height="2.567"/>
			<rect x="143.399" y="62.298" fill="#343D4A" width="2.566" height="2.567"/>
			<rect x="148.537" y="57.165" fill="#343D4A" width="2.566" height="2.566"/>
			<rect x="148.537" y="67.434" fill="#343D4A" width="2.566" height="2.566"/>
			<rect x="143.399" y="57.165" fill="#343D4A" width="2.566" height="2.566"/>
			<rect x="153.67" y="67.434" fill="#343D4A" width="2.566" height="2.566"/>
			<rect x="143.399" y="67.434" fill="#343D4A" width="2.566" height="2.566"/>
		</g>
		<rect x="125.488" y="62.298" fill="#343D4A" width="15.345" height="2.567"/>
		<rect x="110.096" y="57.165" fill="#404B5B" width="12.826" height="12.835"/>
	</g>
</g>
</svg>