<?xml version="1.0" encoding="UTF-8"?>
<!-- Generator: Adobe Illustrator 16.0.0, SVG Export Plug-In . SVG Version: 6.00 Build 0)  -->
<!DOCTYPE svg PUBLIC "-//W3C//DTD SVG 1.1//EN" "http://www.w3.org/Graphics/SVG/1.1/DTD/svg11.dtd">
<svg version="1.1" id="Layer_1" xmlns="http://www.w3.org/2000/svg" xmlns:xlink="http://www.w3.org/1999/xlink" x="0px" y="0px" width="200px" height="200px" viewBox="0 0 200 200" enable-background="new 0 0 200 200" xml:space="preserve">
<g>
	<g>
		<path fill="#E6E5E5" d="M99.446,51.088c0,7.033-5.694,12.728-12.728,12.728c-7.026,0-12.72-5.695-12.72-12.728    c0-7.029,5.694-12.728,12.72-12.728C93.751,38.36,99.446,44.059,99.446,51.088z"/>
		<g>
			<g>
				<rect x="85.446" y="30.993" fill="#404B5B" width="2.543" height="5.082"/>
				
					<rect x="75.404" y="34.615" transform="matrix(0.4998 0.8661 -0.8661 0.4998 70.0687 -49.5598)" fill="#404B5B" width="5.08" height="2.543"/>
				
					<rect x="68.98" y="41.041" transform="matrix(0.8661 0.4998 -0.4998 0.8661 30.7255 -30.0853)" fill="#404B5B" width="5.085" height="2.542"/>
				<rect x="66.625" y="49.817" fill="#404B5B" width="5.084" height="2.542"/>
				
					<rect x="70.252" y="57.323" transform="matrix(0.4993 0.8664 -0.8664 0.4993 87.6802 -31.9946)" fill="#404B5B" width="2.542" height="5.084"/>
				
					<rect x="99.38" y="58.594" transform="matrix(0.8664 0.4994 -0.4994 0.8664 43.5177 -42.9012)" fill="#404B5B" width="5.083" height="2.542"/>
				<rect x="101.735" y="49.817" fill="#404B5B" width="5.083" height="2.542"/>
				
					<rect x="100.651" y="39.769" transform="matrix(0.5001 0.866 -0.866 0.5001 87.5877 -67.1091)" fill="#404B5B" width="2.541" height="5.086"/>
				
					<rect x="94.228" y="33.348" transform="matrix(0.8662 0.4997 -0.4997 0.8662 30.7137 -42.9219)" fill="#404B5B" width="2.542" height="5.079"/>
			</g>
		</g>
	</g>
	<g>
		<path fill="#FAD97F" d="M132.756,72.893c-1.346-1.336-3.101-2.011-4.856-2.011c-1.758,0-3.513,0.674-4.848,2.011    c-1.347,1.34-2.019,3.098-2.019,4.854v0.005c0-1.762-0.673-3.516-2.008-4.858c-1.34-1.338-3.093-2.012-4.849-2.012    c-1.76,0-3.516,0.674-4.855,2.012c-1.337,1.342-2.014,3.097-2.014,4.858v-0.006c0-1.759-0.668-3.516-2.005-4.855    c-1.343-1.334-3.098-2.008-4.852-2.008c-1.758,0-3.515,0.674-4.857,2.008c-1.337,1.339-2.008,3.097-2.008,4.855V51.088    c0-1.753-0.675-3.515-2.018-4.852c-1.334-1.338-3.09-2.01-4.848-2.01c-1.755,0-3.512,0.671-4.851,2.01    c-1.339,1.336-2.01,3.099-2.01,4.852v78.899h13.728h13.722h13.726h13.725v-52.24C134.758,75.991,134.091,74.233,132.756,72.893z"/>
		<path fill="#FAD97F" d="M86.718,136.262c-3.789,0-6.86-3.072-6.86-6.864c0-11.496-9.355-20.85-20.852-20.85    c-3.789,0-6.861-3.074-6.861-6.863c0-3.792,3.072-6.864,6.861-6.864c19.069,0,34.58,15.513,34.58,34.577    C93.586,133.189,90.515,136.262,86.718,136.262z"/>
		<path fill="#404B5B" d="M132.669,172.831c1.033,0,2.058-0.395,2.845-1.179c0.78-0.781,1.174-1.811,1.174-2.84v-35.396    c0-1.029-0.394-2.059-1.174-2.842c-0.787-0.783-1.812-1.178-2.845-1.178H81.95c-1.025,0-2.056,0.395-2.839,1.178    c-0.785,0.783-1.178,1.813-1.178,2.842v35.396c0,1.029,0.393,2.059,1.178,2.84c0.783,0.784,1.814,1.179,2.839,1.179H132.669z"/>
		<path fill="#FFFFFF" d="M126.325,137.239c1.763,0,3.187,1.436,3.187,3.19c0,1.764-1.424,3.192-3.187,3.192    c-1.759,0-3.191-1.429-3.191-3.192C123.134,138.675,124.566,137.239,126.325,137.239z"/>
	</g>
</g>
</svg>