<?xml version="1.0" encoding="UTF-8"?>
<!-- Generator: Adobe Illustrator 16.0.0, SVG Export Plug-In . SVG Version: 6.00 Build 0)  -->
<!DOCTYPE svg PUBLIC "-//W3C//DTD SVG 1.1//EN" "http://www.w3.org/Graphics/SVG/1.1/DTD/svg11.dtd">
<svg version="1.1" id="Layer_1" xmlns="http://www.w3.org/2000/svg" xmlns:xlink="http://www.w3.org/1999/xlink" x="0px" y="0px" width="200px" height="200px" viewBox="0 0 200 200" enable-background="new 0 0 200 200" xml:space="preserve">
<g>
	<g>
		<path fill="#D9D8D7" d="M159.556,142.66c-0.955,1.33-1.969,2.647-3.014,3.918l-2.224-1.83c1.004-1.22,1.98-2.488,2.899-3.769    L159.556,142.66z M42.035,144.823l-2.222,1.832c-1.044-1.266-2.058-2.582-3.017-3.91l2.335-1.685    C40.054,142.34,41.031,143.606,42.035,144.823z M153.283,150.29c-1.122,1.198-2.297,2.374-3.495,3.495l-1.968-2.102    c1.151-1.078,2.283-2.21,3.361-3.361L153.283,150.29z M48.541,151.748l-1.965,2.104c-1.196-1.117-2.373-2.291-3.498-3.489    l2.098-1.97C46.259,149.544,47.391,150.672,48.541,151.748z M146.076,157.043c-1.269,1.044-2.585,2.058-3.914,3.012l-1.681-2.338    c1.278-0.919,2.547-1.894,3.767-2.898L146.076,157.043z M55.891,157.775l-1.677,2.342c-1.333-0.956-2.652-1.969-3.922-3.008    l1.826-2.229C53.338,155.882,54.608,156.855,55.891,157.775z M138.061,162.806c-1.393,0.869-2.83,1.703-4.272,2.477l-1.362-2.535    c1.387-0.746,2.771-1.547,4.109-2.383L138.061,162.806z M63.963,162.799l-1.358,2.539c-1.443-0.771-2.883-1.604-4.282-2.475    l1.521-2.444C61.19,161.256,62.575,162.057,63.963,162.799z M129.363,167.475c-1.493,0.68-3.026,1.318-4.558,1.896l-1.018-2.693    c1.471-0.556,2.945-1.169,4.383-1.823L129.363,167.475z M72.625,166.725l-1.013,2.695c-1.533-0.578-3.071-1.214-4.571-1.893    l1.188-2.623C69.672,165.557,71.151,166.17,72.625,166.725z M120.136,170.965c-1.573,0.479-3.18,0.911-4.771,1.283l-0.655-2.805    c1.53-0.357,3.074-0.771,4.588-1.232L120.136,170.965z M81.723,169.477l-0.65,2.806c-1.599-0.372-3.207-0.8-4.775-1.274    l0.833-2.755C78.64,168.709,80.185,169.12,81.723,169.477z M110.518,173.215c-1.611,0.267-3.259,0.483-4.898,0.646l-0.283-2.865    c1.577-0.156,3.162-0.365,4.712-0.622L110.518,173.215z M91.097,171.008l-0.277,2.867c-1.632-0.157-3.281-0.371-4.901-0.637    l0.464-2.841C87.942,170.651,89.526,170.857,91.097,171.008z M100.69,174.185c-1.642,0.055-3.3,0.056-4.942,0.003l0.09-2.877    c1.582,0.05,3.178,0.049,4.755-0.004L100.69,174.185z"/>
	</g>
	<g>
		<path fill="#404B5B" d="M100.957,32.38c-0.777-0.776-1.793-1.162-2.811-1.162c-1.017,0-2.035,0.386-2.81,1.162    c-0.777,0.776-1.164,1.797-1.164,2.815V53.48h7.95V35.195C102.123,34.177,101.732,33.156,100.957,32.38z"/>
		<g>
			<path fill="#404B5B" d="M98.146,123.628c-16.727,0-32.884-6.067-45.496-17.087l2.368-2.71     c11.957,10.446,27.272,16.198,43.128,16.198c15.854,0,31.172-5.752,43.127-16.198l2.368,2.71     C131.028,117.561,114.871,123.628,98.146,123.628z"/>
			
				<rect x="129.643" y="108.569" transform="matrix(-0.9397 0.342 -0.342 -0.9397 292.8618 175.0233)" fill="#404B5B" width="2.719" height="9.518"/>
			
				<rect x="63.925" y="108.569" transform="matrix(0.9397 0.342 -0.342 0.9397 42.6911 -15.4929)" fill="#404B5B" width="2.719" height="9.518"/>
		</g>
		<g>
			<polygon fill="#CCCBCA" points="131.021,149.275 135.209,160.785 135.209,149.275    "/>
			<path fill="#404B5B" d="M108.408,55.225l-1.803,0.655c0.347,0.962,0.552,1.995,0.552,3.077c0,3.887-2.479,7.198-5.932,8.459     l30.011,82.447c0.169,0.459,0.471,0.876,0.902,1.177c0.43,0.303,0.925,0.445,1.416,0.445h0.066c0.408,0,0.813-0.154,1.126-0.465     c0.31-0.313,0.462-0.717,0.462-1.123v-21.033L108.408,55.225z"/>
		</g>
		<g>
			<polygon fill="#CCCBCA" points="65.271,149.275 61.082,160.785 61.082,149.275    "/>
			<path fill="#404B5B" d="M87.885,55.225l1.802,0.655c-0.347,0.962-0.551,1.995-0.551,3.077c0,3.887,2.479,7.198,5.933,8.459     l-30.012,82.447c-0.168,0.459-0.472,0.876-0.901,1.177c-0.432,0.303-0.925,0.445-1.416,0.445h-0.066     c-0.409,0-0.813-0.154-1.126-0.465c-0.31-0.313-0.464-0.717-0.464-1.123v-21.033L87.885,55.225z"/>
		</g>
		<path fill="#CCCBCA" d="M98.146,67.967c-4.967,0-9.011-4.043-9.011-9.011c0-4.967,4.044-9.01,9.011-9.01    c4.968,0,9.011,4.043,9.011,9.01C107.157,63.924,103.114,67.967,98.146,67.967z M98.146,55.778c-1.752,0-3.18,1.427-3.18,3.178    c0,1.756,1.428,3.18,3.18,3.18c1.751,0,3.18-1.424,3.18-3.18C101.326,57.205,99.897,55.778,98.146,55.778z"/>
	</g>
</g>
</svg>