<?xml version="1.0" encoding="UTF-8"?>
<!-- Generator: Adobe Illustrator 16.0.0, SVG Export Plug-In . SVG Version: 6.00 Build 0)  -->
<!DOCTYPE svg PUBLIC "-//W3C//DTD SVG 1.1//EN" "http://www.w3.org/Graphics/SVG/1.1/DTD/svg11.dtd">
<svg version="1.1" id="Layer_1" xmlns="http://www.w3.org/2000/svg" xmlns:xlink="http://www.w3.org/1999/xlink" x="0px" y="0px" width="200px" height="200px" viewBox="0 0 200 200" enable-background="new 0 0 200 200" xml:space="preserve">
<g>
	<path fill="#FAD97F" d="M101.844,30.831c-24.659,0.004-44.64,19.985-44.64,44.645c0,13.06,5.619,24.812,14.554,32.978   c0.422,0.353,0.847,0.724,1.286,1.107c6.974,6.364,11.353,15.512,11.353,25.688v3.885h17.447h17.447v-3.885   c0-10.177,4.368-19.324,11.364-25.688c0.425-0.384,0.851-0.755,1.275-1.107c8.924-8.167,14.553-19.918,14.553-32.978   C146.483,50.816,126.504,30.835,101.844,30.831z"/>
	<path fill="#F8C964" d="M131.775,75.472c0,16.526-13.405,29.916-29.927,29.916c-16.541,0-29.937-13.39-29.937-29.916   c0-16.525,13.396-29.947,29.937-29.947C118.37,45.525,131.775,58.947,131.775,75.472z"/>
	<g>
		<polygon fill="#404B5B" points="101.851,172.831 89.781,165.628 113.919,165.628   "/>
		<path fill="#343D4A" d="M121.723,162.789c0,0.726-0.277,1.452-0.832,2.007s-1.28,0.832-2.007,0.832h-34.08    c-0.726,0-1.453-0.277-2.007-0.832s-0.832-1.281-0.832-2.007v-23.657h39.758V162.789z"/>
		<rect x="81.965" y="142.076" fill="#404B5B" width="39.758" height="2.929"/>
		<rect x="81.965" y="147.972" fill="#404B5B" width="39.758" height="2.94"/>
		<rect x="81.965" y="153.846" fill="#404B5B" width="39.758" height="2.942"/>
		<rect x="81.965" y="159.733" fill="#404B5B" width="39.758" height="2.956"/>
	</g>
	<g>
		<rect x="90.707" y="94.733" fill="#F37657" width="7.421" height="44.399"/>
		<rect x="98.127" y="94.733" fill="#E76947" width="7.422" height="44.399"/>
		<rect x="105.55" y="94.733" fill="#D75B37" width="7.424" height="44.399"/>
		<polygon fill="#FFFFFF" points="112.981,94.733 105.541,81.875 98.138,81.875 90.718,94.733   "/>
		<polygon fill="#CCCBCA" points="112.981,94.733 105.55,94.733 103.07,81.875 105.541,81.875   "/>
		<polygon fill="#404B5B" points="105.541,81.875 101.831,75.456 98.138,81.875   "/>
	</g>
</g>
</svg>