<?xml version="1.0" encoding="UTF-8"?>
<!-- Generator: Adobe Illustrator 16.0.0, SVG Export Plug-In . SVG Version: 6.00 Build 0)  -->
<!DOCTYPE svg PUBLIC "-//W3C//DTD SVG 1.1//EN" "http://www.w3.org/Graphics/SVG/1.1/DTD/svg11.dtd">
<svg version="1.1" id="Layer_1" xmlns="http://www.w3.org/2000/svg" xmlns:xlink="http://www.w3.org/1999/xlink" x="0px" y="0px" width="45.75px" height="29.943px" viewBox="0 -6.943 45.75 29.943" enable-background="new 0 -6.943 45.75 29.943" xml:space="preserve">
<g>
	<g>
		<g>
			<path fill="#FFFFFF" d="M36.648,4.089c0.549,0.387,1.016,0.896,1.356,1.517l6.339-5.083v-7.466h-2.042v6.484L36.648,4.089z"/>
			<path fill="#FFFFFF" d="M23.76,17.029l6.395-5.128c-0.521-0.409-0.959-0.931-1.267-1.567l-1.851,1.488l-4.295,3.409L3.344-0.287     v-6.656H1.302v7.636l20.416,16.333V23h2.042V17.029z"/>
		</g>
		<g>
			<path fill="#FFFFFF" d="M8.997,11.968c-0.55-0.387-1.016-0.896-1.356-1.517l-6.34,5.082V23h2.042v-6.482L8.997,11.968z"/>
			<path fill="#FFFFFF" d="M21.887-0.971l-6.396,5.127c0.52,0.409,0.959,0.931,1.266,1.567l1.85-1.488l4.296-3.408l19.398,15.519V23     h2.042v-7.635L23.929-0.968v-5.974h-2.042V-0.971z"/>
		</g>
	</g>
</g>
</svg>