<?xml version="1.0" encoding="UTF-8"?>
<!-- Generator: Adobe Illustrator 16.0.0, SVG Export Plug-In . SVG Version: 6.00 Build 0)  -->
<!DOCTYPE svg PUBLIC "-//W3C//DTD SVG 1.1//EN" "http://www.w3.org/Graphics/SVG/1.1/DTD/svg11.dtd">
<svg version="1.1" id="Layer_1" xmlns="http://www.w3.org/2000/svg" xmlns:xlink="http://www.w3.org/1999/xlink" x="0px" y="0px" width="400px" height="300px" viewBox="0 0 400 300" enable-background="new 0 0 400 300" xml:space="preserve">
<g>
	<g>
		<g>
			<path fill="#FFFFFF" d="M325.654,115.403c4.955,3.496,9.17,8.089,12.247,13.697l57.231-45.893V15.801h-18.436v58.541     L325.654,115.403z"/>
			<path fill="#FFFFFF" d="M209.287,232.242l57.734-46.307c-4.7-3.694-8.659-8.402-11.437-14.151l-16.708,13.437l-38.782,30.781     L24.957,75.894V15.801H6.52v68.941l184.33,147.465v53.943h18.437V232.242z"/>
		</g>
		<g>
			<path fill="#FFFFFF" d="M75.994,186.544c-4.964-3.492-9.17-8.095-12.242-13.693L6.511,218.735v67.415h18.437v-58.527     L75.994,186.544z"/>
			<path fill="#FFFFFF" d="M192.375,69.717l-57.748,46.29c4.695,3.694,8.658,8.407,11.432,14.151l16.704-13.437L201.55,85.95     L376.688,226.07v60.08h18.438v-68.932L210.813,69.744V15.81h-18.437V69.717z"/>
		</g>
	</g>
</g>
</svg>