<?xml version="1.0" encoding="utf-8"?>
<!-- Generator: Adobe Illustrator 16.0.0, SVG Export Plug-In . SVG Version: 6.00 Build 0)  -->
<!DOCTYPE svg PUBLIC "-//W3C//DTD SVG 1.1//EN" "http://www.w3.org/Graphics/SVG/1.1/DTD/svg11.dtd">
<svg version="1.1" id="Layer_1" xmlns:sketch="http://www.bohemiancoding.com/sketch/ns"
	 xmlns="http://www.w3.org/2000/svg" xmlns:xlink="http://www.w3.org/1999/xlink" x="0px" y="0px" width="205px" height="30px"
	 viewBox="-51.241 0.251 205 30" enable-background="new -51.241 0.251 205 30" xml:space="preserve">
<title>cd-logo</title>
<desc>Created with Sketch.</desc>
<g>
	<rect x="-51.241" y="-43.108" fill="#FFFFFF" width="205" height="30"/>
	<rect y="-43.109" fill="#E2E3DF" width="44.096" height="30"/>
	<rect x="44.096" y="-43.109" fill="#69AA6F" width="42.77" height="30"/>
	<rect x="86.865" y="-43.109" fill="#2E3233" width="66.894" height="30"/>
	<g>
		<path fill="#2E3233" d="M11.335-20.814L7.833-32.439h2.973l2,7.169l2.093-7.169h2.424l2.104,7.169l1.989-7.169h2.973
			l-3.502,11.625h-2.548l-2.228-7.615l-2.228,7.615H11.335z"/>
		<path fill="#2E3233" d="M28.244-25.497c0.187,0.671,0.571,1.216,1.155,1.637c0.584,0.422,1.245,0.632,1.984,0.632
			c0.504,0,0.977-0.101,1.419-0.306c0.442-0.203,0.812-0.484,1.109-0.845h3.222c-0.477,1.182-1.229,2.114-2.258,2.798
			c-1.03,0.684-2.193,1.025-3.492,1.025c-0.836,0-1.632-0.149-2.388-0.45s-1.418-0.733-1.984-1.301
			c-0.574-0.559-1.014-1.212-1.321-1.958c-0.308-0.746-0.461-1.533-0.461-2.362c0-0.828,0.153-1.616,0.461-2.362
			c0.307-0.746,0.748-1.401,1.321-1.968c0.566-0.56,1.228-0.99,1.984-1.291s1.552-0.451,2.388-0.451c0.835,0,1.632,0.15,2.388,0.451
			s1.417,0.73,1.984,1.291c0.573,0.566,1.014,1.222,1.321,1.968c0.307,0.746,0.461,1.534,0.461,2.362
			c0,0.471-0.028,0.848-0.083,1.13H28.244z M34.46-27.963c-0.228-0.629-0.62-1.13-1.176-1.503c-0.557-0.373-1.19-0.56-1.901-0.56
			c-0.705,0-1.336,0.187-1.896,0.56s-0.953,0.874-1.181,1.503H34.46z"/>
		<path fill="#FFFFFF" d="M53.638-20.814l-3.502-11.625h2.974l2,7.169l2.093-7.169h2.424l2.103,7.169l1.989-7.169h2.974
			L63.19-20.814h-2.549l-2.228-7.615l-2.228,7.615H53.638z"/>
		<path fill="#FFFFFF" d="M68.029-36.5h2.839v2.611h-2.839V-36.5z M68.029-20.814v-11.625h2.839v11.625H68.029z"/>
		<path fill="#FFFFFF" d="M73.127-20.814v-15.707h2.838v15.707H73.127z"/>
		<path fill="#FFFFFF" d="M78.224-20.814v-15.707h2.839v15.707H78.224z"/>
		<path fill="#FFFFFF" d="M106.841-24.845c-0.388,1.313-1.113,2.355-2.176,3.129c-1.063,0.774-2.314,1.16-3.751,1.16
			c-0.843,0-1.641-0.149-2.394-0.45c-0.752-0.301-1.415-0.733-1.989-1.301c-0.565-0.565-1.001-1.22-1.306-1.963
			c-0.304-0.742-0.455-1.528-0.455-2.357c0-0.828,0.151-1.614,0.455-2.356c0.305-0.742,0.74-1.397,1.306-1.964
			c0.574-0.566,1.237-1,1.989-1.3c0.753-0.3,1.551-0.451,2.394-0.451c1.437,0,2.688,0.387,3.751,1.161
			c1.063,0.774,1.788,1.817,2.176,3.128h-3.057c-0.58-1.077-1.537-1.616-2.87-1.616c-0.953,0-1.742,0.321-2.367,0.964
			c-0.626,0.643-0.938,1.454-0.938,2.435c0,0.982,0.312,1.793,0.938,2.436c0.625,0.642,1.414,0.963,2.367,0.963
			c0.643,0,1.211-0.14,1.704-0.42c0.493-0.279,0.882-0.678,1.166-1.196H106.841z"/>
		<path fill="#FFFFFF" d="M120.465-26.627c0,0.837-0.151,1.626-0.456,2.367c-0.304,0.744-0.742,1.395-1.315,1.953
			c-0.574,0.567-1.237,1-1.989,1.301c-0.753,0.301-1.551,0.45-2.394,0.45s-1.641-0.149-2.394-0.45
			c-0.752-0.301-1.415-0.733-1.989-1.301c-0.573-0.559-1.012-1.209-1.315-1.953c-0.305-0.741-0.456-1.53-0.456-2.367
			c0-0.835,0.151-1.625,0.456-2.367c0.304-0.742,0.742-1.396,1.315-1.963c0.574-0.56,1.237-0.99,1.989-1.291
			c0.753-0.3,1.551-0.451,2.394-0.451s1.641,0.15,2.394,0.451c0.752,0.3,1.415,0.73,1.989,1.291
			c0.573,0.566,1.012,1.221,1.315,1.963C120.313-28.252,120.465-27.462,120.465-26.627z M114.311-30.025
			c-0.947,0-1.735,0.32-2.367,0.959c-0.633,0.639-0.948,1.452-0.948,2.439c0,0.988,0.315,1.802,0.948,2.44
			c0.632,0.64,1.42,0.958,2.367,0.958c0.946,0,1.735-0.318,2.367-0.958c0.632-0.639,0.948-1.452,0.948-2.44
			c0-0.987-0.316-1.801-0.948-2.439S115.257-30.025,114.311-30.025z"/>
		<path fill="#FFFFFF" d="M131.209-36.521h2.839v15.707h-2.839v-1.232c-0.822,0.994-2,1.491-3.533,1.491
			c-0.794,0-1.553-0.149-2.274-0.45c-0.721-0.301-1.362-0.733-1.922-1.301c-0.56-0.565-0.989-1.22-1.29-1.963
			c-0.3-0.742-0.45-1.528-0.45-2.357c0-0.828,0.15-1.614,0.45-2.356c0.301-0.742,0.73-1.4,1.29-1.974
			c0.56-0.56,1.201-0.99,1.922-1.291c0.722-0.3,1.48-0.451,2.274-0.451c1.533,0,2.711,0.498,3.533,1.492V-36.521z M127.894-30.025
			c-0.946,0-1.735,0.32-2.367,0.959s-0.948,1.452-0.948,2.439c0,0.988,0.316,1.802,0.948,2.44c0.632,0.64,1.421,0.958,2.367,0.958
			s1.735-0.318,2.367-0.958c0.632-0.639,0.948-1.452,0.948-2.44c0-0.987-0.316-1.801-0.948-2.439S128.84-30.025,127.894-30.025z"/>
		<path fill="#FFFFFF" d="M138.762-25.497c0.187,0.671,0.571,1.216,1.155,1.637c0.584,0.422,1.245,0.632,1.984,0.632
			c0.504,0,0.978-0.101,1.419-0.306c0.442-0.203,0.813-0.484,1.109-0.845h3.222c-0.477,1.182-1.229,2.114-2.259,2.798
			c-1.029,0.684-2.192,1.025-3.491,1.025c-0.835,0-1.632-0.149-2.388-0.45c-0.757-0.301-1.419-0.733-1.984-1.301
			c-0.574-0.559-1.015-1.212-1.321-1.958s-0.461-1.533-0.461-2.362c0-0.828,0.154-1.616,0.461-2.362s0.747-1.401,1.321-1.968
			c0.565-0.56,1.228-0.99,1.984-1.291c0.756-0.3,1.553-0.451,2.388-0.451s1.632,0.15,2.388,0.451c0.757,0.3,1.419,0.73,1.984,1.291
			c0.574,0.566,1.014,1.222,1.321,1.968c0.307,0.746,0.461,1.534,0.461,2.362c0,0.471-0.027,0.848-0.083,1.13H138.762z
			 M144.979-27.963c-0.229-0.629-0.62-1.13-1.176-1.503s-1.19-0.56-1.901-0.56c-0.704,0-1.337,0.187-1.896,0.56
			s-0.953,0.874-1.181,1.503H144.979z"/>
	</g>
	<g>
		<g>
			<path fill="#2E3233" d="M-12.07-32.045c0.55,0.387,1.017,0.896,1.357,1.517l6.339-5.083v-7.466h-2.042v6.484L-12.07-32.045z"/>
			<path fill="#2E3233" d="M-24.958-19.105l6.394-5.128c-0.52-0.409-0.958-0.931-1.266-1.568l-1.85,1.489l-4.296,3.408
				l-19.396-15.518v-6.655h-2.042v7.636L-27-19.108v5.974h2.042V-19.105z"/>
		</g>
		<g>
			<path fill="#2E3233" d="M-39.721-24.166c-0.55-0.387-1.016-0.896-1.356-1.516l-6.34,5.082v7.466h2.042v-6.483L-39.721-24.166z"/>
			<path fill="#2E3233" d="M-26.831-37.105l-6.396,5.127c0.52,0.409,0.959,0.931,1.266,1.567l1.85-1.488l4.296-3.408l19.397,15.518
				v6.655h2.042v-7.636l-20.414-16.333v-5.974h-2.042V-37.105z"/>
		</g>
	</g>
</g>
<g>
	<rect x="-51.241" y="0.225" fill="#FFFFFF" width="205" height="30"/>
	<rect y="0.225" fill="#E2E3DF" width="44.096" height="30"/>
	<rect x="44.096" y="0.225" fill="#69AA6F" width="42.77" height="30"/>
	<rect x="86.865" y="0.225" fill="#2E3233" width="66.894" height="30"/>
	<g>
		<g>
			<path fill="#2E3233" d="M-12.07,11.289c0.55,0.387,1.017,0.895,1.357,1.516l6.339-5.082V0.256h-2.042V6.74L-12.07,11.289z"/>
			<path fill="#2E3233" d="M-24.958,24.229l6.394-5.129c-0.52-0.408-0.958-0.93-1.266-1.568l-1.85,1.49l-4.296,3.408L-45.374,6.912
				V0.256h-2.042v7.637L-27,24.225v5.975h2.042V24.229z"/>
		</g>
		<g>
			<path fill="#2E3233" d="M-39.721,19.168c-0.55-0.387-1.016-0.896-1.356-1.516l-6.34,5.082v7.465h2.042v-6.482L-39.721,19.168z"/>
			<path fill="#2E3233" d="M-26.831,6.229l-6.396,5.127c0.52,0.41,0.959,0.932,1.266,1.568l1.85-1.488l4.296-3.408l19.397,15.518
				v6.654h2.042v-7.635L-24.789,6.231V0.258h-2.042V6.229z"/>
		</g>
	</g>
</g>
</svg>
